<?xml version="1.0" encoding="UTF-8" standalone="no"?>
<svg width="128" height="128" viewBox="0 0 128 128" xmlns="http://www.w3.org/2000/svg">
  <rect width="128" height="128" rx="14" fill="#2D3748"/>
  <g transform="translate(14, 14) scale(0.78)">
    <!-- Cloud shape -->
    <path d="M100 65.8C100 81.4 87.4 94 71.8 94H30c-13.8 0-25-11.2-25-25s11.2-25 25-25c0.9 0 1.8 0 2.7 0.1C35.8 30.9 49.3 22 65 22c21 0 38 17 38 38 0 1.9-0.1 3.8-0.4 5.7 0.1 0 0.3 0 0.4 0 5.5 0 10 4.5 10 10s-4.5 10-10 10c-1 0-2-0.1-2.9-0.4" fill="#4299E1"/>

    <!-- Arrow pointing down -->
    <path d="M64 45v30M54 65l10 10 10-10" stroke="#FFFFFF" stroke-width="6" stroke-linecap="round" stroke-linejoin="round" fill="none"/>

    <!-- Stacked files -->
    <rect x="44" y="75" width="40" height="30" rx="2" fill="#EDF2F7"/>
    <rect x="48" y="70" width="40" height="30" rx="2" fill="#E2E8F0"/>
    <rect x="52" y="65" width="40" height="30" rx="2" fill="#FFFFFF"/>

    <!-- Lines on top file -->
    <line x1="60" y1="75" x2="84" y2="75" stroke="#4A5568" stroke-width="2"/>
    <line x1="60" y1="81" x2="84" y2="81" stroke="#4A5568" stroke-width="2"/>
    <line x1="60" y1="87" x2="74" y2="87" stroke="#4A5568" stroke-width="2"/>
  </g>
</svg>